<?xml version="1.0" encoding="utf-8"?>
<!-- Generator: Adobe Illustrator 21.0.0, SVG Export Plug-In . SVG Version: 6.00 Build 0)  -->
<svg version="1.1" id="Layer_1" xmlns="http://www.w3.org/2000/svg" xmlns:xlink="http://www.w3.org/1999/xlink" x="0px" y="0px"
	 viewBox="0 0 265 60" style="enable-background:new 0 0 265 60;" xml:space="preserve">
<style type="text/css">
	.st0{fill:#FFFFFF;}
</style>
<g>
	<g>
		<g>
			<path class="st0" d="M87.7,28.5l-2.9,2.3c2.9-3.5,3.6-7.9,2.5-10.4c-2.7-6.1-8.1-5.4-8.1-5.4c2.1,3.9,1.2,7.2,1.2,7.2
				c-1-5.5-5.9-11-5.9-11C59.9-6,40.2,3.8,40.2,3.8c-19,9.8-16.5,29.6-16.5,30.2l-0.4-0.8c-2.6-7.1,0.4-11.7,0.4-11.7
				C9.2,23,6.5,35.5,6.5,35.5C2.2,52.3,19,59,19,59h71.7c9-4.7,9-14.9,9-14.9C99.3,29.6,87.7,28.5,87.7,28.5z M52.9,55.1
				c-13.9,0-25.1-11.2-25.1-25.1c0-13.9,11.2-25.1,25.1-25.1C66.8,4.9,78,16.2,78,30C78,43.9,66.8,55.1,52.9,55.1z"/>
			<path class="st0" d="M75.6,29.3c-0.4-11.9-10.1-21.6-22-22C40.5,6.9,29.8,17.6,30.2,30.8c0.4,11.9,10.1,21.6,22,22
				C65.3,53.1,76,42.4,75.6,29.3z M69.9,41H45.7c-5.9,0-10.9-4.7-11-10.6c-0.1-3.1,1.2-5.8,3.2-7.8c2-1.9,4.6-3.2,7.6-3.2
				c1.8,0,3.6,0.5,5.1,1.3c0.2,0.1,0.3,0.4,0.3,0.6l-0.4,1.5l-0.2,0.9c-0.1,0.3-0.5,0.5-0.8,0.3c-1.2-0.8-2.5-1.2-4-1.2
				c-2,0-3.9,0.8-5.2,2.2c-1.3,1.4-2.2,3.2-2.2,5.2c0,2,0.8,3.9,2.2,5.2c1.3,1.4,3.2,2.2,5.2,2.2h21.2c0,0,0,0,0-0.1l-0.3-1.1
				L63.9,26c0,0-0.1,0-0.1,0l-1.6,6.5l-0.8,3.2c-0.1,0.4-0.5,0.7-0.9,0.7h-3.7c-0.4,0-0.7-0.3-0.7-0.7l-0.8-3.2L53.7,26
				c0,0-0.1,0-0.1,0l-0.8,3.2L51,36.4L50.8,37c0,0.1-0.2,0.2-0.3,0.2h-2.9c-0.2,0-0.3-0.2-0.3-0.4l0.1-0.4l2.9-11.7l0.5-1.9l0.4-1.7
				l0.2-0.7c0.1-0.6,0.7-1,1.3-1h1.8c0.6,0,1.1,0.4,1.3,1l0.6,2.4l2.3,9.3c0,0,0.1,0,0.1,0l2.3-9.3l0.6-2.4c0.1-0.6,0.7-1,1.3-1h1.8
				c0.6,0,1.1,0.4,1.3,1l4,16l0.9,3.4c0,0.1,0,0.1,0,0.2C70.8,40.6,70.4,41,69.9,41z"/>
		</g>
		<g>
			<path class="st0" d="M114.9,24.9c-0.3,1.2-0.7,2.1-1.4,2.7c-0.6,0.6-1.4,0.9-2.3,0.9c-1.2,0-2.2-0.5-2.9-1.3
				c-0.8-0.9-1.1-2.4-1.1-4.5c0-2,0.4-3.4,1.2-4.3c0.8-0.9,1.7-1.3,3-1.3c0.9,0,1.7,0.3,2.3,0.8c0.6,0.5,1,1.2,1.2,2l3.3-0.8
				c-0.4-1.3-0.9-2.3-1.7-3.1c-1.3-1.2-2.9-1.8-4.9-1.8c-2.3,0-4.2,0.8-5.6,2.3c-1.4,1.5-2.1,3.7-2.1,6.4c0,2.6,0.7,4.6,2.1,6.1
				c1.4,1.5,3.2,2.2,5.4,2.2c1.8,0,3.2-0.4,4.4-1.3c1.2-0.9,2-2.2,2.5-4L114.9,24.9z"/>
			<path class="st0" d="M124.5,28.2V14.6h-3.4V31h11.6v-2.8H124.5z"/>
			<path class="st0" d="M148.3,16.5c-1.5-1.5-3.4-2.3-5.9-2.3c-1.3,0-2.5,0.2-3.6,0.7c-0.8,0.3-1.5,0.8-2.1,1.5
				c-0.7,0.7-1.2,1.4-1.5,2.3c-0.5,1.2-0.8,2.6-0.8,4.3c0,2.6,0.7,4.7,2.2,6.2c1.4,1.5,3.4,2.2,5.8,2.2c2.4,0,4.4-0.7,5.8-2.2
				c1.5-1.5,2.2-3.6,2.2-6.3C150.5,20.1,149.8,18,148.3,16.5z M145.8,27c-0.9,0.9-1.9,1.5-3.3,1.5c-1.3,0-2.4-0.5-3.3-1.5
				c-0.9-1-1.3-2.4-1.3-4.3c0-1.9,0.4-3.3,1.3-4.3c0.8-1,2-1.4,3.3-1.4c1.4,0,2.5,0.5,3.3,1.4c0.8,0.9,1.2,2.3,1.2,4.2
				C147.1,24.6,146.6,26,145.8,27z"/>
			<path class="st0" d="M163,14.5v9.2c0,1.3-0.1,2.2-0.2,2.8c-0.1,0.6-0.4,1.1-0.9,1.4c-0.5,0.4-1.2,0.6-2.1,0.6
				c-0.9,0-1.7-0.2-2.2-0.6c-0.6-0.4-0.9-1-1-1.6c-0.1-0.4-0.1-1.4-0.1-2.8v-9h-3.3v8.8c0,1.9,0.1,3.3,0.3,4.2
				c0.2,0.6,0.5,1.2,0.9,1.8c0.5,0.6,1.1,1.1,2,1.4c0.8,0.4,2,0.5,3.6,0.5c1.3,0,2.4-0.2,3.2-0.5c0.8-0.3,1.5-0.8,1.9-1.4
				c0.5-0.6,0.8-1.2,1-2.1c0.2-0.8,0.3-2.2,0.3-4.2v-8.7H163z"/>
			<path class="st0" d="M183.1,19c-0.4-1.1-0.9-2-1.6-2.7c-0.7-0.7-1.5-1.2-2.5-1.5c-0.7-0.2-1.8-0.3-3.1-0.3h-6.1V31h6.3
				c1.2,0,2.2-0.1,3-0.3c1-0.3,1.8-0.8,2.3-1.3c0.8-0.7,1.4-1.7,1.8-2.9c0.3-1,0.5-2.2,0.5-3.5C183.7,21.3,183.5,20.1,183.1,19z
				 M179.9,25.8c-0.2,0.7-0.5,1.3-0.9,1.6c-0.4,0.3-0.8,0.6-1.4,0.7c-0.4,0.1-1.1,0.2-2,0.2h-2.5v-11h1.5c1.4,0,2.3,0,2.7,0.2
				c0.6,0.1,1.1,0.4,1.6,0.8c0.4,0.4,0.7,0.9,0.9,1.6c0.2,0.7,0.3,1.7,0.3,2.9C180.2,24,180.1,25,179.9,25.8z"/>
			<path class="st0" d="M197.4,14.5l-3,11.3l-3-11.3h-5V31h3.1V18l3.3,13h3.2l3.3-13v13h3.1V14.5H197.4z"/>
			<path class="st0" d="M209.1,28.2v-4.5h8.3v-2.8h-8.3v-3.7h8.9v-2.8h-12.3V31h12.6v-2.8H209.1z"/>
			<path class="st0" d="M234.5,19c-0.4-1.1-0.9-2-1.6-2.7c-0.7-0.7-1.5-1.2-2.5-1.5c-0.7-0.2-1.8-0.3-3.1-0.3h-6.1V31h6.3
				c1.2,0,2.2-0.1,3-0.3c1-0.3,1.8-0.8,2.3-1.3c0.8-0.7,1.4-1.7,1.8-2.9c0.3-1,0.5-2.2,0.5-3.5C235,21.3,234.9,20.1,234.5,19z
				 M231.2,25.8c-0.2,0.7-0.5,1.3-0.9,1.6c-0.4,0.3-0.8,0.6-1.3,0.7c-0.4,0.1-1.1,0.2-2,0.2h-2.5v-11h1.5c1.4,0,2.3,0,2.7,0.2
				c0.6,0.1,1.2,0.4,1.5,0.8c0.4,0.4,0.7,0.9,1,1.6c0.2,0.7,0.3,1.7,0.3,2.9C231.6,24,231.5,25,231.2,25.8z"/>
			<path class="st0" d="M237.8,14.5V31h3.3V14.5H237.8z"/>
			<path class="st0" d="M252.6,14.5h-3.5L242.6,31h3.6l1.4-3.8h6.6l1.4,3.8h3.6L252.6,14.5z M248.5,24.5l2.2-6.2l2.3,6.2H248.5z"/>
		</g>
		<g>
			<path class="st0" d="M116.7,48c-0.4-0.5-0.9-0.8-1.6-1.1c0.5-0.3,0.9-0.6,1.2-1c0.3-0.4,0.4-0.9,0.4-1.4c0-0.5-0.1-1-0.5-1.5
				c-0.3-0.5-0.7-0.9-1.3-1.1c-0.5-0.2-1.2-0.3-2.1-0.3h-4.3v11.5h4.4c0.7,0,1.3-0.1,1.9-0.2c0.5-0.1,0.9-0.3,1.2-0.6
				c0.3-0.3,0.6-0.6,0.9-1.1c0.2-0.5,0.3-1,0.3-1.5C117.3,49.1,117.1,48.5,116.7,48z M110.1,42.9h2.3c0.8,0,1.4,0.1,1.7,0.2
				c0.3,0.1,0.6,0.3,0.8,0.6c0.2,0.3,0.3,0.6,0.3,1c0,0.4-0.1,0.7-0.3,1c-0.2,0.3-0.5,0.5-0.9,0.6c-0.3,0.1-0.8,0.1-1.5,0.1h-2.5
				V42.9z M115.5,50.7c-0.1,0.3-0.3,0.5-0.6,0.6c-0.2,0.1-0.5,0.3-0.9,0.3c-0.2,0-0.6,0.1-1.1,0.1h-2.9v-4h2.7
				c0.7,0,1.3,0.1,1.7,0.2c0.4,0.1,0.7,0.3,0.9,0.7c0.2,0.3,0.3,0.7,0.3,1.1C115.7,50.1,115.6,50.4,115.5,50.7z"/>
			<path class="st0" d="M125.4,45.7c-0.7-0.8-1.7-1.1-2.8-1.1c-1,0-1.9,0.3-2.6,0.9c-0.9,0.7-1.3,1.9-1.3,3.4c0,1.4,0.4,2.5,1.1,3.2
				c0.7,0.8,1.7,1.1,2.8,1.1c0.7,0,1.4-0.2,2-0.5c0.6-0.3,1.1-0.8,1.4-1.4c0.3-0.6,0.5-1.5,0.5-2.5
				C126.5,47.4,126.1,46.4,125.4,45.7z M124.3,51.3c-0.5,0.5-1,0.8-1.8,0.8c-0.7,0-1.3-0.3-1.7-0.8c-0.5-0.5-0.7-1.3-0.7-2.4
				c0-1.1,0.2-1.9,0.7-2.4c0.5-0.5,1.1-0.8,1.7-0.8c0.7,0,1.3,0.3,1.8,0.8c0.5,0.5,0.7,1.3,0.7,2.3C125,50,124.8,50.8,124.3,51.3z"
				/>
			<path class="st0" d="M134.3,45.7c-0.7-0.8-1.7-1.1-2.8-1.1c-1,0-1.9,0.3-2.6,0.9c-0.9,0.7-1.3,1.9-1.3,3.4c0,1.4,0.4,2.5,1.1,3.2
				c0.7,0.8,1.7,1.1,2.8,1.1c0.7,0,1.4-0.2,2-0.5c0.6-0.3,1.1-0.8,1.4-1.4c0.3-0.6,0.5-1.5,0.5-2.5
				C135.4,47.4,135.1,46.4,134.3,45.7z M133.3,51.3c-0.5,0.5-1.1,0.8-1.8,0.8c-0.7,0-1.3-0.3-1.7-0.8c-0.5-0.5-0.7-1.3-0.7-2.4
				c0-1.1,0.2-1.9,0.7-2.4c0.5-0.5,1.1-0.8,1.7-0.8c0.7,0,1.3,0.3,1.7,0.8c0.5,0.5,0.7,1.3,0.7,2.3C134,50,133.7,50.8,133.3,51.3z"
				/>
			<path class="st0" d="M143.1,49.4c-0.2-0.3-0.5-0.6-0.9-0.8c-0.4-0.2-1.1-0.4-2.1-0.7c-0.7-0.2-1.1-0.3-1.2-0.4
				c-0.2-0.1-0.4-0.2-0.5-0.4c-0.1-0.2-0.2-0.3-0.2-0.5c0-0.3,0.1-0.5,0.4-0.8c0.3-0.2,0.7-0.3,1.4-0.3c0.6,0,1,0.1,1.3,0.4
				c0.3,0.2,0.5,0.6,0.6,1l1.4-0.2c-0.1-0.5-0.2-1-0.5-1.3c-0.2-0.3-0.6-0.6-1.1-0.8c-0.5-0.2-1.1-0.3-1.7-0.3
				c-0.4,0-0.9,0.1-1.2,0.2c-0.4,0.1-0.7,0.2-0.9,0.4c-0.3,0.2-0.5,0.5-0.7,0.8c-0.2,0.3-0.3,0.6-0.3,1c0,0.4,0.1,0.8,0.3,1.1
				c0.2,0.3,0.5,0.6,0.9,0.8c0.4,0.2,1.1,0.4,2.1,0.7c0.8,0.2,1.2,0.4,1.4,0.5c0.3,0.2,0.4,0.4,0.4,0.8c0,0.4-0.2,0.7-0.5,0.9
				c-0.3,0.3-0.8,0.4-1.4,0.4c-0.6,0-1.1-0.2-1.5-0.5c-0.4-0.3-0.6-0.7-0.7-1.3l-1.4,0.2c0.2,0.9,0.5,1.5,1.1,2
				c0.6,0.5,1.4,0.7,2.5,0.7c0.7,0,1.2-0.1,1.8-0.4c0.5-0.2,0.9-0.5,1.2-1c0.3-0.4,0.4-0.9,0.4-1.4
				C143.4,50.1,143.3,49.7,143.1,49.4z"/>
			<path class="st0" d="M148.2,51.8c-0.3,0-0.5,0.1-0.6,0.1c-0.2,0-0.4,0-0.5-0.1c-0.1-0.1-0.2-0.2-0.2-0.3
				c-0.1-0.1-0.1-0.4-0.1-0.8v-4.9h1.4v-1.1h-1.4v-2.9l-1.4,0.8v2.1h-1v1.1h1v4.8c0,0.9,0.1,1.4,0.2,1.7c0.1,0.3,0.3,0.5,0.6,0.6
				c0.3,0.2,0.7,0.3,1.2,0.3c0.3,0,0.7-0.1,1.1-0.1L148.2,51.8z"/>
			<path class="st0" d="M161.5,41.6l-2.2,3.4c-0.5,0.8-0.9,1.4-1.3,2c-0.4-0.7-0.8-1.3-1.2-2l-2.3-3.5h-1.8l4.4,6.6v4.9h1.5v-4.9
				l4.6-6.6H161.5z"/>
			<path class="st0" d="M169.3,45.7c-0.7-0.8-1.7-1.1-2.8-1.1c-1,0-1.9,0.3-2.6,0.9c-0.9,0.7-1.3,1.9-1.3,3.4c0,1.4,0.4,2.5,1.1,3.2
				c0.7,0.8,1.7,1.1,2.8,1.1c0.7,0,1.4-0.2,2-0.5c0.6-0.3,1.1-0.8,1.4-1.4c0.3-0.6,0.5-1.5,0.5-2.5C170.3,47.4,170,46.4,169.3,45.7z
				 M168.2,51.3c-0.5,0.5-1.1,0.8-1.7,0.8c-0.7,0-1.3-0.3-1.8-0.8c-0.5-0.5-0.7-1.3-0.7-2.4c0-1.1,0.2-1.9,0.7-2.4
				c0.5-0.5,1.1-0.8,1.8-0.8c0.7,0,1.3,0.3,1.7,0.8c0.5,0.5,0.7,1.3,0.7,2.3C168.9,50,168.7,50.8,168.2,51.3z"/>
			<path class="st0" d="M177.3,44.7v4.5c0,0.7-0.1,1.2-0.2,1.6c-0.1,0.4-0.4,0.7-0.8,0.9c-0.4,0.2-0.8,0.3-1.2,0.3
				c-0.4,0-0.8-0.1-1.1-0.3c-0.3-0.2-0.5-0.5-0.6-0.9c-0.1-0.3-0.1-0.8-0.1-1.5v-4.6H172v5.2c0,0.6,0,1.1,0.1,1.3
				c0.1,0.4,0.2,0.8,0.4,1c0.2,0.3,0.5,0.5,1,0.7c0.4,0.2,0.9,0.3,1.4,0.3c1.1,0,2-0.5,2.7-1.4v1.2h1.2v-8.3H177.3z"/>
			<path class="st0" d="M184,44.5c-0.3,0-0.6,0.1-0.9,0.3c-0.3,0.2-0.6,0.6-0.9,1.2v-1.2h-1.3v8.3h1.4v-4.4c0-0.6,0.1-1.2,0.2-1.6
				c0.1-0.3,0.3-0.6,0.5-0.8c0.2-0.2,0.5-0.3,0.8-0.3c0.3,0,0.7,0.1,1,0.3l0.5-1.3C185,44.7,184.5,44.5,184,44.5z"/>
			<path class="st0" d="M199,48c-0.4-0.5-0.9-0.8-1.6-1.1c0.5-0.3,1-0.6,1.2-1c0.3-0.4,0.4-0.9,0.4-1.4c0-0.5-0.1-1-0.4-1.5
				c-0.3-0.5-0.7-0.9-1.3-1.1c-0.5-0.2-1.2-0.3-2.1-0.3h-4.3v11.5h4.4c0.7,0,1.4-0.1,1.9-0.2c0.5-0.1,0.9-0.3,1.3-0.6
				c0.3-0.3,0.6-0.6,0.8-1.1c0.2-0.5,0.3-1,0.3-1.5C199.6,49.1,199.4,48.5,199,48z M192.4,42.9h2.3c0.8,0,1.4,0.1,1.7,0.2
				c0.3,0.1,0.6,0.3,0.8,0.6c0.2,0.3,0.3,0.6,0.3,1c0,0.4-0.1,0.7-0.3,1c-0.2,0.3-0.5,0.5-0.9,0.6c-0.3,0.1-0.8,0.1-1.5,0.1h-2.5
				V42.9z M197.8,50.7c-0.1,0.3-0.3,0.5-0.6,0.6c-0.2,0.1-0.5,0.3-0.9,0.3c-0.2,0-0.6,0.1-1.1,0.1h-2.9v-4h2.7
				c0.7,0,1.3,0.1,1.7,0.2c0.4,0.1,0.7,0.3,0.9,0.7c0.2,0.3,0.3,0.7,0.3,1.1C198,50.1,197.9,50.4,197.8,50.7z"/>
			<path class="st0" d="M206.8,44.7v4.5c0,0.7-0.1,1.2-0.2,1.6c-0.1,0.4-0.4,0.7-0.8,0.9c-0.4,0.2-0.8,0.3-1.2,0.3
				c-0.4,0-0.8-0.1-1.1-0.3c-0.3-0.2-0.5-0.5-0.6-0.9c-0.1-0.3-0.1-0.8-0.1-1.5v-4.6h-1.4v5.2c0,0.6,0,1.1,0.1,1.3
				c0.1,0.4,0.2,0.8,0.4,1c0.2,0.3,0.5,0.5,0.9,0.7c0.4,0.2,0.9,0.3,1.4,0.3c1.1,0,2-0.5,2.7-1.4v1.2h1.3v-8.3H206.8z"/>
			<path class="st0" d="M216.5,49.4c-0.2-0.3-0.5-0.6-0.9-0.8c-0.4-0.2-1.1-0.4-2.1-0.7c-0.7-0.2-1.1-0.3-1.3-0.4
				c-0.2-0.1-0.4-0.2-0.5-0.4c-0.1-0.2-0.2-0.3-0.2-0.5c0-0.3,0.1-0.5,0.4-0.8c0.3-0.2,0.7-0.3,1.4-0.3c0.6,0,1,0.1,1.3,0.4
				c0.3,0.2,0.5,0.6,0.5,1l1.4-0.2c-0.1-0.5-0.3-1-0.5-1.3c-0.2-0.3-0.6-0.6-1.1-0.8c-0.5-0.2-1.1-0.3-1.7-0.3
				c-0.4,0-0.8,0.1-1.2,0.2c-0.4,0.1-0.7,0.2-0.9,0.4c-0.3,0.2-0.5,0.5-0.7,0.8c-0.2,0.3-0.3,0.6-0.3,1c0,0.4,0.1,0.8,0.3,1.1
				c0.2,0.3,0.5,0.6,0.9,0.8c0.4,0.2,1.1,0.4,2.1,0.7c0.8,0.2,1.3,0.4,1.5,0.5c0.3,0.2,0.4,0.4,0.4,0.8c0,0.4-0.2,0.7-0.5,0.9
				c-0.3,0.3-0.8,0.4-1.4,0.4c-0.7,0-1.2-0.2-1.5-0.5c-0.4-0.3-0.6-0.7-0.7-1.3l-1.4,0.2c0.2,0.9,0.5,1.5,1.1,2
				c0.6,0.5,1.4,0.7,2.5,0.7c0.6,0,1.2-0.1,1.8-0.4c0.5-0.2,0.9-0.5,1.2-1c0.3-0.4,0.4-0.9,0.4-1.4
				C216.8,50.1,216.7,49.7,216.5,49.4z"/>
			<path class="st0" d="M218.5,44.7v8.3h1.4v-8.3H218.5z M218.5,41.6v1.6h1.4v-1.6H218.5z"/>
			<path class="st0" d="M228.8,46.5c-0.1-0.4-0.2-0.8-0.4-1c-0.2-0.3-0.5-0.5-1-0.7c-0.4-0.2-0.9-0.3-1.4-0.3c-1.2,0-2,0.5-2.6,1.4
				v-1.2h-1.3v8.3h1.4v-4.6c0-1.1,0.2-1.8,0.7-2.2c0.4-0.4,0.9-0.6,1.5-0.6c0.4,0,0.7,0.1,1,0.3c0.3,0.2,0.5,0.4,0.6,0.7
				c0.1,0.3,0.2,0.7,0.2,1.3v5.1h1.4v-5.1C228.9,47.3,228.8,46.8,228.8,46.5z"/>
			<path class="st0" d="M238.3,48.9c0-1.4-0.4-2.4-1.1-3.2c-0.7-0.8-1.6-1.1-2.7-1.1c-1.2,0-2.1,0.4-2.8,1.2
				c-0.7,0.8-1.1,1.9-1.1,3.3c0,1.4,0.4,2.4,1.1,3.2c0.7,0.8,1.7,1.1,2.9,1.1c1,0,1.8-0.2,2.4-0.7c0.6-0.5,1.1-1.1,1.3-2l-1.5-0.2
				c-0.2,0.6-0.5,1-0.9,1.3c-0.4,0.3-0.8,0.4-1.3,0.4c-0.7,0-1.3-0.2-1.7-0.7c-0.5-0.5-0.7-1.2-0.8-2.1h6.2V48.9z M232.1,48.1
				c0-0.7,0.3-1.3,0.7-1.7c0.4-0.4,1-0.7,1.6-0.7c0.7,0,1.3,0.3,1.7,0.8c0.3,0.4,0.5,0.9,0.5,1.6H232.1z"/>
			<path class="st0" d="M246,49.4c-0.2-0.3-0.5-0.6-0.9-0.8c-0.4-0.2-1.1-0.4-2.1-0.7c-0.7-0.2-1.1-0.3-1.2-0.4
				c-0.2-0.1-0.4-0.2-0.5-0.4c-0.1-0.2-0.2-0.3-0.2-0.5c0-0.3,0.1-0.5,0.4-0.8c0.3-0.2,0.8-0.3,1.4-0.3c0.6,0,1,0.1,1.3,0.4
				c0.3,0.2,0.5,0.6,0.5,1l1.4-0.2c-0.1-0.5-0.3-1-0.5-1.3c-0.2-0.3-0.6-0.6-1.1-0.8c-0.5-0.2-1.1-0.3-1.7-0.3
				c-0.4,0-0.8,0.1-1.2,0.2c-0.4,0.1-0.7,0.2-0.9,0.4c-0.3,0.2-0.5,0.5-0.7,0.8c-0.2,0.3-0.2,0.6-0.2,1c0,0.4,0.1,0.8,0.3,1.1
				c0.2,0.3,0.5,0.6,0.9,0.8c0.4,0.2,1.1,0.4,2.2,0.7c0.8,0.2,1.3,0.4,1.4,0.5c0.3,0.2,0.4,0.4,0.4,0.8c0,0.4-0.2,0.7-0.5,0.9
				c-0.3,0.3-0.8,0.4-1.4,0.4c-0.6,0-1.2-0.2-1.5-0.5c-0.4-0.3-0.6-0.7-0.7-1.3l-1.4,0.2c0.2,0.9,0.5,1.5,1.1,2
				c0.6,0.5,1.4,0.7,2.5,0.7c0.7,0,1.3-0.1,1.8-0.4c0.5-0.2,0.9-0.5,1.2-1c0.3-0.4,0.4-0.9,0.4-1.4C246.3,50.1,246.2,49.7,246,49.4z
				"/>
			<path class="st0" d="M254,49.4c-0.2-0.3-0.5-0.6-0.9-0.8c-0.4-0.2-1.1-0.4-2.1-0.7c-0.7-0.2-1.1-0.3-1.2-0.4
				c-0.3-0.1-0.4-0.2-0.5-0.4c-0.1-0.2-0.2-0.3-0.2-0.5c0-0.3,0.1-0.5,0.4-0.8c0.3-0.2,0.7-0.3,1.4-0.3c0.6,0,1,0.1,1.3,0.4
				c0.3,0.2,0.5,0.6,0.6,1l1.4-0.2c-0.1-0.5-0.2-1-0.5-1.3c-0.2-0.3-0.6-0.6-1.1-0.8c-0.5-0.2-1.1-0.3-1.7-0.3
				c-0.4,0-0.9,0.1-1.2,0.2c-0.4,0.1-0.7,0.2-0.9,0.4c-0.3,0.2-0.5,0.5-0.7,0.8c-0.2,0.3-0.3,0.6-0.3,1c0,0.4,0.1,0.8,0.3,1.1
				c0.2,0.3,0.5,0.6,0.9,0.8c0.4,0.2,1.1,0.4,2.2,0.7c0.8,0.2,1.2,0.4,1.4,0.5c0.3,0.2,0.4,0.4,0.4,0.8c0,0.4-0.2,0.7-0.5,0.9
				c-0.3,0.3-0.8,0.4-1.4,0.4c-0.6,0-1.1-0.2-1.5-0.5c-0.4-0.3-0.6-0.7-0.7-1.3l-1.4,0.2c0.2,0.9,0.5,1.5,1.1,2
				c0.6,0.5,1.4,0.7,2.5,0.7c0.7,0,1.2-0.1,1.7-0.4c0.5-0.2,0.9-0.5,1.2-1c0.3-0.4,0.4-0.9,0.4-1.4C254.4,50.1,254.3,49.7,254,49.4z
				"/>
		</g>
		<g>
			<path class="st0" d="M94.2,5c-2.5,0-4.6,2.1-4.6,4.6c0,2.6,2.1,4.6,4.6,4.6c2.6,0,4.6-2.1,4.6-4.6C98.9,7,96.8,5,94.2,5z
				 M94.2,13.3c-2,0-3.7-1.7-3.7-3.7c0-2,1.7-3.7,3.7-3.7c2,0,3.7,1.6,3.7,3.7C97.9,11.6,96.3,13.3,94.2,13.3z"/>
			<g>
				<path class="st0" d="M96,11c-0.2-0.4-0.4-0.6-0.6-0.8c-0.1-0.2-0.3-0.3-0.5-0.4c0.4-0.1,0.7-0.2,1-0.4c0.2-0.2,0.3-0.5,0.3-0.9
					c0-0.3-0.1-0.5-0.2-0.8c-0.1-0.2-0.3-0.4-0.6-0.5c-0.2-0.1-0.6-0.1-1.1-0.1h-2V12h1v-2h0.2c0.2,0,0.4,0,0.5,0.1
					c0.1,0,0.2,0.1,0.3,0.2c0.1,0.1,0.3,0.3,0.5,0.7l0.7,1.1h1.2L96,11z M94,9.2h-0.7V8h1.5c0.2,0,0.3,0.1,0.4,0.2
					c0.1,0.1,0.1,0.2,0.1,0.4c0,0.1,0,0.3-0.1,0.4C95,9,94.9,9.1,94.8,9.2C94.7,9.2,94.4,9.2,94,9.2z"/>
			</g>
		</g>
	</g>
</g>
</svg>
